<svg width="215" height="238" viewBox="0 0 215 238" fill="none" xmlns="http://www.w3.org/2000/svg">
<path d="M101.682 168.635C105.62 167.927 107.59 165.981 107.59 162.796C107.59 159.492 106.515 155.835 104.367 151.825C102.338 147.696 99.295 143.803 95.2373 140.146C84.6156 130.708 70.2345 125.99 52.0941 125.99C43.1432 125.99 34.7891 127.464 27.0316 130.413C18.7968 126.285 12.2329 119.737 7.33972 110.772C2.44657 101.806 0 92.1328 0 81.7517C0 54.6191 11.4571 33.6798 34.3714 18.9338C54.0633 6.31128 78.35 0 107.231 0C128.714 0 146.794 2.30037 161.474 6.90112C176.153 11.3839 188.147 17.1643 197.456 24.2424C200.201 32.0283 201.574 40.109 201.574 48.4848C201.574 56.8605 200.44 64.4694 198.172 71.3115C195.905 78.1537 192.623 83.6392 188.326 87.768C184.269 84.8188 176.929 81.8107 166.307 78.7435C155.686 75.6763 146.019 74.1428 137.306 74.1428C128.594 74.1428 122.746 74.6736 119.763 75.7353C116.898 76.797 115.466 78.4486 115.466 80.69C115.466 81.7517 115.645 82.7544 116.003 83.6981C120.18 82.6364 125.551 82.1056 132.115 82.1056C155.387 82.1056 174.363 87.5321 189.042 98.3851C206.347 111.362 215 130.826 215 156.779C215 179.665 205.631 198.658 186.894 213.758C166.606 229.919 139.335 238 105.083 238C86.2268 238 69.8765 236.584 56.0325 233.753C42.1885 231.04 28.7025 226.203 15.5745 219.243C6.62365 206.385 2.14821 193.349 2.14821 180.137C2.14821 166.806 6.74299 155.776 15.9326 147.047C25.1221 138.317 36.4002 133.952 49.7669 133.952C63.2528 133.952 74.2326 136.666 82.7061 142.092C91.2989 147.519 97.6242 156.366 101.682 168.635Z" fill="white"/>
</svg>
